# xmcd CD database file
#
# Track frame offsets:
#	150
#	18290
#	42160
#	68630
#
# Disc length: 1332 seconds
#
# Revision: 0
# Processed by: cddbd v1.5PL3 Copyright (c) Steve Scherf et al.
# Submitted via: CDex 1.40Release
#
DISCID=27053204
DTITLE=access - DRASTIC MERMAID Re-SYNC STYLE
DYEAR=1900
DGENRE=Techno
TTITLE0=DRASTIC MERMAID(ORIGINAL 7")
TTITLE1=DRASTIC MERMAID(SUGAR BREEZE Re-SYNC STYLE)
TTITLE2=DRASTIC MERMAID(BOY WILL BE MERMAID Re-SYNC STYLE)
TTITLE3=DRASTIC MERMAID(ATOMIC COASTER Re-SYNC STYLE)
EXTD=ID3G: 18
EXTT0=
EXTT1=
EXTT2=
EXTT3=
PLAYORDER=
